<?xml version="1.0" standalone="no"?>
<!DOCTYPE svg PUBLIC "-//W3C//DTD SVG 20010904//EN"
 "http://www.w3.org/TR/2001/REC-SVG-20010904/DTD/svg10.dtd">
<svg version="1.0" xmlns="http://www.w3.org/2000/svg"
 width="1600.000000pt" height="1600.000000pt" viewBox="0 0 1600.000000 1600.000000"
 preserveAspectRatio="xMidYMid meet">
<metadata>
Created by potrace 1.14, written by Peter Selinger 2001-2017
</metadata>
<g transform="translate(0.000000,1600.000000) scale(0.100000,-0.100000)"
fill="#000000" stroke="none">
<path d="M7128 15723 c-10 -3 -18 -9 -18 -14 0 -5 -13 -9 -30 -9 -19 0 -34 -7
-42 -20 -20 -31 -62 -26 -97 13 -21 21 -31 27 -32 17 -3 -69 -20 -84 -95 -86
-34 -1 -61 -8 -80 -22 -16 -11 -45 -23 -65 -25 -33 -4 -64 -23 -113 -72 -12
-11 -40 -29 -64 -40 -26 -12 -45 -29 -48 -42 -4 -13 -10 -21 -14 -18 -4 3 -13
-2 -20 -10 -7 -8 -18 -15 -24 -15 -6 0 -21 -11 -34 -25 -18 -19 -31 -23 -57
-20 -27 4 -35 1 -40 -16 -4 -11 -9 -18 -12 -15 -7 7 -53 -45 -53 -60 0 -6 -13
-17 -30 -24 -21 -9 -30 -19 -30 -35 0 -23 -22 -50 -32 -39 -8 7 -36 -34 -86
-127 -23 -42 -39 -79 -35 -82 3 -4 2 -7 -3 -7 -5 0 -11 -12 -12 -27 -1 -16 -7
-29 -12 -31 -6 -2 -10 -8 -10 -12 0 -5 -11 -20 -25 -34 -14 -14 -25 -34 -25
-46 0 -11 0 -22 0 -25 0 -3 -8 -13 -18 -23 -9 -9 -23 -37 -31 -62 -7 -25 -16
-52 -19 -60 -3 -8 -4 -19 -3 -23 1 -5 -5 -23 -13 -40 -16 -35 -28 -81 -31
-113 -1 -11 -5 -27 -10 -34 -4 -7 -9 -23 -11 -34 -16 -108 -24 -147 -32 -163
-14 -25 -17 -122 -4 -153 5 -14 6 -34 2 -45 -4 -11 -3 -31 2 -45 5 -13 11 -49
13 -80 7 -92 13 -122 34 -184 12 -33 21 -67 21 -76 0 -10 7 -34 15 -54 8 -20
12 -36 9 -36 -4 0 -2 -6 4 -12 5 -7 27 -62 47 -123 20 -60 43 -120 51 -131 7
-12 23 -53 35 -90 12 -38 24 -73 28 -79 3 -5 7 -21 9 -34 2 -14 8 -33 14 -44
12 -23 5 -31 -45 -47 -36 -11 -85 -62 -79 -81 1 -5 -2 -9 -6 -9 -9 0 -10 -21
-12 -195 -1 -147 5 -216 20 -245 6 -10 9 -23 8 -27 -1 -4 3 -30 10 -58 6 -27
14 -62 16 -77 3 -15 7 -32 11 -38 7 -12 16 -47 19 -76 1 -12 8 -29 15 -38 7
-9 10 -16 6 -16 -4 0 2 -16 14 -36 12 -19 15 -32 9 -28 -7 4 -2 -4 12 -18 38
-39 49 -55 43 -61 -2 -3 9 -13 26 -22 17 -8 31 -19 31 -24 0 -17 88 -32 132
-21 24 5 45 10 48 10 3 0 7 -11 8 -24 1 -14 10 -42 20 -63 11 -21 35 -69 53
-108 19 -38 39 -75 46 -82 6 -7 15 -22 18 -33 3 -11 11 -20 16 -20 5 0 9 -6 9
-12 0 -7 12 -26 26 -43 14 -16 33 -42 42 -57 9 -16 20 -28 25 -28 4 0 6 -4 3
-9 -3 -4 6 -23 19 -41 14 -19 25 -45 25 -58 0 -13 7 -52 16 -86 15 -57 19 -73
29 -133 2 -12 6 -27 10 -33 4 -6 8 -24 10 -40 2 -16 8 -55 14 -87 5 -32 13
-76 16 -98 3 -22 10 -68 16 -103 12 -65 4 -92 -27 -92 -19 0 -84 -42 -111 -71
-11 -13 -34 -39 -51 -57 -16 -18 -38 -44 -48 -58 -11 -15 -24 -31 -30 -38 -6
-6 -22 -31 -37 -56 -27 -46 -77 -99 -112 -117 -11 -6 -42 -14 -70 -18 -27 -4
-63 -9 -80 -11 -33 -5 -114 -34 -130 -46 -5 -4 -29 -23 -53 -43 -40 -32 -74
-45 -192 -75 -49 -13 -197 -64 -245 -85 -16 -7 -61 -26 -100 -41 -38 -15 -92
-40 -120 -55 -51 -27 -167 -68 -220 -76 -16 -3 -46 1 -66 7 -46 15 -80 8 -115
-25 -15 -14 -50 -31 -78 -39 -135 -35 -188 -46 -229 -46 -37 0 -51 -6 -81 -33
-20 -19 -49 -40 -64 -47 -35 -16 -51 -25 -120 -62 -31 -17 -58 -30 -59 -29
-23 11 -89 -45 -111 -93 -14 -33 -122 -166 -134 -166 -4 0 -8 -5 -8 -12 0 -7
-11 -23 -24 -37 -13 -15 -36 -48 -51 -76 -15 -27 -31 -52 -35 -55 -7 -5 -124
-220 -125 -230 -1 -3 -9 -19 -18 -37 -9 -18 -18 -40 -20 -50 -2 -10 -8 -27
-13 -38 -6 -11 -16 -39 -24 -62 -7 -24 -18 -43 -23 -43 -6 0 -8 -3 -5 -6 3 -3
-10 -49 -29 -102 -19 -53 -35 -101 -37 -107 -8 -28 -16 -63 -20 -85 -2 -14 -9
-38 -15 -54 -11 -29 -24 -80 -36 -146 -4 -19 -8 -39 -9 -45 -2 -5 -6 -21 -9
-35 -4 -14 -9 -42 -12 -64 -3 -21 -7 -42 -10 -46 -2 -4 -7 -25 -10 -46 -5 -39
-10 -69 -21 -121 -8 -44 -9 -47 -15 -58 -4 -5 -10 -23 -14 -40 -5 -16 -9 -32
-10 -35 -1 -3 -5 -18 -9 -35 -5 -16 -15 -50 -23 -75 -8 -25 -16 -90 -18 -145
-5 -125 -2 -114 -57 -226 -66 -136 -70 -146 -75 -227 -5 -79 -20 -125 -53
-160 -43 -46 -74 -132 -77 -214 -1 -43 -9 -98 -18 -123 -8 -25 -15 -52 -15
-60 0 -7 -6 -15 -12 -17 -14 -5 -17 -129 -6 -210 4 -26 3 -50 -2 -53 -5 -3 -7
-14 -5 -25 2 -11 -1 -34 -6 -52 -5 -18 -12 -57 -15 -87 -3 -30 -8 -64 -11 -75
-16 -73 -21 -441 -8 -611 4 -55 8 -125 9 -157 0 -31 4 -54 8 -52 5 3 7 -5 7
-18 0 -13 2 -35 5 -49 3 -14 8 -52 10 -85 2 -32 8 -81 11 -109 4 -27 9 -66 10
-85 3 -34 7 -63 25 -160 5 -24 6 -48 4 -52 -3 -5 -1 -8 3 -8 5 0 9 -8 10 -17
3 -42 22 -143 29 -154 4 -7 8 -24 10 -38 1 -14 3 -26 4 -26 1 0 3 -11 6 -25 2
-14 8 -34 13 -45 10 -21 21 -68 24 -97 1 -10 5 -18 10 -18 4 0 5 -5 2 -10 -4
-6 -1 -17 5 -25 6 -8 14 -29 17 -47 3 -18 9 -40 14 -49 4 -9 5 -19 2 -23 -3
-3 -1 -6 5 -6 6 0 13 -15 17 -32 9 -40 18 -62 106 -246 38 -79 69 -147 69
-153 0 -5 5 -9 10 -9 6 0 10 -5 10 -10 0 -17 62 -99 118 -157 41 -41 156 -83
228 -83 34 0 126 18 189 36 11 3 88 4 170 3 83 -1 306 -2 498 -3 382 -1 366 2
348 -62 -4 -16 -9 -74 -11 -129 -3 -143 -4 -169 -11 -180 -5 -8 -11 -31 -34
-125 -2 -7 -14 -68 -20 -102 -10 -54 -16 -82 -20 -88 -2 -4 -7 -21 -10 -38 -3
-17 -10 -44 -17 -59 -6 -15 -12 -30 -13 -33 -1 -3 -13 -29 -28 -59 -14 -29
-27 -71 -29 -92 -1 -22 -5 -39 -8 -39 -3 0 -7 -12 -8 -26 -1 -15 -11 -56 -22
-91 -24 -77 -28 -99 -37 -178 -13 -112 -4 -389 12 -416 4 -5 9 -42 11 -81 6
-88 37 -152 107 -219 28 -27 55 -49 59 -49 9 0 8 -68 -1 -85 -2 -5 -6 -18 -7
-30 -5 -45 -13 -74 -28 -103 -8 -16 -13 -32 -10 -35 3 -3 -18 -11 -45 -18 -29
-7 -51 -19 -51 -26 0 -7 -6 -13 -14 -13 -23 0 -38 -59 -40 -147 -1 -34 -4 -64
-8 -68 -5 -6 -26 -11 -50 -14 -3 -1 -5 -9 -3 -18 3 -24 -14 -55 -26 -48 -5 4
-9 3 -8 -2 2 -7 -5 -29 -28 -83 -7 -18 -10 -28 -17 -56 -5 -22 -41 -111 -63
-153 -6 -14 -10 -28 -7 -33 3 -4 1 -8 -4 -8 -5 0 -9 -6 -9 -12 0 -7 -4 -33 -8
-58 -11 -69 -8 -132 10 -160 4 -7 1182 -10 3474 -10 3297 0 3468 1 3466 17 -1
10 -4 25 -8 33 -4 8 -8 24 -10 35 -2 11 -13 40 -24 65 -11 25 -20 63 -21 85 0
22 -5 63 -11 90 -6 28 -14 61 -17 75 -3 13 -10 30 -15 36 -10 12 -14 27 -24
99 -16 105 -24 158 -31 185 -3 14 -7 40 -9 58 -1 18 -6 53 -10 78 -4 27 -2 50
4 58 6 7 12 35 14 63 1 30 9 56 19 66 9 10 20 26 23 37 4 11 10 18 15 15 9 -6
30 100 33 167 1 27 -1 48 -4 48 -4 0 -10 16 -13 35 -5 26 -2 39 13 57 94 111
150 201 151 244 0 11 3 24 7 28 13 12 14 34 30 436 7 193 6 584 -1 670 -7 79
-4 85 51 87 119 6 204 45 275 125 29 33 59 66 66 73 6 8 12 19 12 25 0 6 3 9
8 7 4 -2 15 4 25 15 9 10 14 18 11 18 -3 0 1 7 8 15 20 22 31 36 58 75 13 19
32 44 42 54 10 11 18 25 18 32 0 7 8 18 18 23 9 6 13 11 9 11 -5 0 1 13 12 29
12 16 21 33 21 39 0 5 9 20 19 34 11 14 21 36 23 49 2 13 9 34 16 46 7 12 12
31 12 43 0 11 6 23 13 26 8 3 13 15 12 27 -1 12 3 28 8 35 6 8 12 22 14 32 5
34 23 71 32 66 5 -4 7 2 4 13 -3 10 3 33 11 50 9 17 14 31 12 31 -8 0 17 64
31 78 7 7 13 22 13 32 0 11 7 45 16 77 8 32 16 63 18 68 1 6 10 26 19 45 10
19 20 53 23 75 3 22 11 52 19 68 13 27 32 122 24 122 -2 0 6 16 18 36 12 19
23 51 25 70 1 19 7 43 14 54 7 11 15 40 18 65 7 55 10 69 30 145 9 33 19 83
22 110 4 28 10 51 15 53 4 2 5 10 2 18 -3 8 0 20 6 28 6 7 9 15 6 18 -3 2 0
20 6 39 5 19 13 61 16 94 3 33 9 67 13 75 10 19 18 75 25 160 3 36 8 79 11 95
21 113 25 625 5 663 -14 27 -11 46 19 107 30 61 41 216 19 256 -7 13 -14 38
-15 54 -12 179 -24 273 -39 318 -22 68 -24 93 -31 272 -6 198 -9 245 -17 265
-4 8 -8 45 -11 82 -2 37 -7 71 -10 76 -3 5 -7 37 -10 73 -3 35 -8 82 -10 104
-3 22 -7 72 -11 110 -3 39 -8 91 -10 117 -2 26 -7 59 -10 75 -3 15 -8 48 -11
73 -2 25 -7 59 -9 75 -3 17 -7 46 -9 65 -5 49 -24 149 -30 158 -3 5 -8 23 -11
40 -44 250 -181 621 -289 781 -20 29 -36 55 -36 58 0 3 -11 19 -25 37 -14 17
-29 36 -33 41 -46 63 -140 170 -226 258 -58 59 -106 114 -106 121 0 31 -79 71
-259 133 -310 106 -513 165 -736 213 -125 27 -151 35 -355 105 -91 31 -192 62
-225 70 -33 8 -78 18 -100 24 -60 15 -292 99 -355 128 -68 32 -158 63 -180 63
-9 0 -27 11 -40 24 -12 14 -35 28 -51 31 -33 8 -80 63 -116 137 -33 69 -137
170 -197 193 -45 17 -106 17 -188 0 -22 -4 -28 -2 -29 12 -2 24 -4 35 -11 53
-10 23 -21 90 -24 145 -2 28 -8 106 -14 175 -6 69 -12 174 -14 234 -2 61 -7
111 -13 113 -11 4 -8 66 4 70 5 2 8 65 7 141 -1 75 2 162 7 192 11 65 12 88 6
115 -2 11 -2 24 1 29 3 5 5 62 5 127 0 64 3 122 6 127 4 6 18 13 31 15 14 2
38 9 54 16 35 14 116 95 116 115 0 8 4 17 10 21 5 3 6 13 3 21 -4 10 2 17 16
21 11 3 21 13 22 22 0 9 0 66 0 126 0 104 -2 139 -15 203 -3 15 -8 59 -11 97
-3 39 -8 81 -11 95 -3 14 -7 36 -10 50 -3 14 -10 43 -16 65 -6 22 -11 45 -13
50 -1 6 -4 17 -7 25 -3 8 -11 33 -17 55 -18 60 -33 87 -65 120 -34 35 -44 38
-116 36 l-55 -1 -3 129 c-2 82 1 132 8 136 6 4 7 12 1 23 -5 10 -12 67 -15
127 -7 130 -10 156 -21 255 -5 41 -9 86 -10 100 -3 57 -37 184 -66 245 -5 11
-10 35 -11 53 -1 18 -8 32 -15 32 -7 0 -13 5 -13 10 0 6 -13 24 -29 40 -17 18
-27 38 -24 48 2 11 -4 21 -19 27 -25 11 -37 53 -18 65 8 5 -1 12 -24 20 -24 8
-36 18 -36 30 0 10 -24 42 -53 69 -30 28 -62 66 -72 84 -10 19 -35 45 -55 57
-21 13 -45 36 -54 51 -9 15 -36 44 -61 64 -24 21 -42 42 -39 46 3 5 1 9 -4 9
-5 0 -28 18 -53 40 -24 22 -40 40 -36 40 15 0 -48 47 -73 55 -50 14 -100 39
-100 50 0 10 -113 68 -157 80 -13 4 -23 12 -23 20 0 15 -29 27 -70 30 -55 4
-248 44 -272 56 -24 13 -102 22 -185 22 -52 0 -73 4 -77 13 -3 8 -15 14 -26
14 -12 0 -29 4 -38 8 -9 5 -25 7 -34 5z"/>
</g>
</svg>
